# Blender v2.79 (sub 0) OBJ File: 'blocks.blend'
# www.blender.org
o Dice_Dice_obj
v -2.090430 3.336356 0.555269
v -1.411842 4.832586 -0.068201
v -1.764049 2.548175 -0.981008
v -1.085462 4.044405 -1.604478
v -0.502697 2.858898 1.137540
v 0.175891 4.355128 0.514070
v -0.176316 2.070717 -0.398737
v 0.502271 3.566947 -1.022207
v -2.511147 0.077846 2.834087
v -2.511147 2.077846 2.834086
v -3.038880 0.077846 0.904969
v -3.038880 2.077846 0.904968
v -0.582029 0.077846 2.306354
v -0.582029 2.077846 2.306354
v -1.109762 0.077846 0.377235
v -1.109762 2.077846 0.377235
v -2.511147 0.077846 2.834087
v -2.511147 2.077846 2.834086
v -3.038880 0.077846 0.904969
v -3.038880 2.077846 0.904968
v -0.582029 0.077846 2.306354
v -0.582029 2.077846 2.306354
v -1.109762 0.077846 0.377235
v -1.109762 2.077846 0.377235
v 0.346536 0.080436 0.265644
v 0.346536 2.080436 0.265644
v -1.190366 0.080436 -1.014173
v -1.190366 2.080436 -1.014173
v 1.626353 0.080436 -1.271257
v 1.626353 2.080436 -1.271257
v 0.089451 0.080436 -2.551075
v 0.089452 2.080436 -2.551075
v -6.953587 -0.083705 -7.826498
v -6.953587 -0.083705 7.826498
v 6.953588 -0.083704 7.826496
v 6.953585 -0.083704 -7.826501
v -6.953591 0.083705 -7.826493
v -6.953583 0.083705 7.826504
v 6.953589 0.083706 7.826496
v 6.953587 0.083707 -7.826497
vt 0.710183 0.318163
vt 0.850153 0.178193
vt 0.850153 0.318163
vt 0.710183 0.178193
vt 0.570214 0.038224
vt 0.710183 0.038224
vt 0.570214 0.178193
vt 0.430244 0.318163
vt 0.430244 0.178193
vt 0.570214 0.318163
vt 0.710183 0.458133
vt 0.570214 0.458133
vt 0.990123 0.178193
vt 0.289441 0.673355
vt 0.005154 0.957643
vt 0.005154 0.673355
vt 0.290424 0.673207
vt 0.006136 0.957494
vt 0.006136 0.673207
vt 0.289946 0.672191
vt 0.005658 0.956479
vt 0.005658 0.672191
vt 0.290424 0.673207
vt 0.006136 0.957494
vt 0.006136 0.673207
vt 0.006136 0.957494
vt 0.290424 0.673207
vt 0.006136 0.673207
vt 0.357368 0.495180
vt 0.497338 0.355210
vt 0.497338 0.495180
vt 0.357368 0.355210
vt 0.217398 0.215240
vt 0.357368 0.215240
vt 0.077429 0.355210
vt 0.217399 0.495180
vt 0.077429 0.495180
vt 0.357368 0.635149
vt 0.217399 0.635149
vt 0.217398 0.075271
vt 0.357368 0.075271
vt 0.217398 0.355210
vt 0.707545 0.781199
vt 0.847514 0.641229
vt 0.847514 0.781199
vt 0.707545 0.641229
vt 0.567575 0.501259
vt 0.707545 0.501259
vt 0.427605 0.641229
vt 0.567575 0.781199
vt 0.427605 0.781199
vt 0.567575 0.921168
vt 0.707545 0.921168
vt 0.987485 0.641229
vt 0.567575 0.641229
vt 0.289961 0.674055
vt 0.005674 0.958342
vt 0.005674 0.674055
vt 0.006072 0.672376
vt 0.290360 0.956663
vt 0.006072 0.956663
vt 0.289961 0.958342
vt 0.005674 0.958342
vt 0.290360 0.672376
vt 0.006072 0.956663
vt 0.006072 0.672376
vt 0.289961 0.674055
vt 0.005674 0.674055
vt 0.290360 0.956663
vt 0.006072 0.956663
vt 0.990123 0.318163
vt 0.289441 0.957643
vt 0.290424 0.957494
vt 0.289946 0.956479
vt 0.290424 0.957494
vt 0.290424 0.957494
vt 0.987485 0.781199
vt 0.289961 0.958342
vt 0.290360 0.672376
vt 0.289961 0.674055
vt 0.289961 0.958342
vt 0.290360 0.672376
vn -0.9035 0.2717 -0.3314
vn 0.1857 -0.4485 -0.8743
vn 0.9035 -0.2717 0.3314
vn -0.1857 0.4485 0.8743
vn -0.3862 -0.8515 0.3548
vn 0.3862 0.8515 -0.3548
vn 0.9646 -0.0000 -0.2639
vn 0.2639 0.0000 0.9646
vn -0.9646 -0.0000 0.2639
vn -0.2639 0.0000 -0.9646
vn -0.0000 1.0000 0.0000
vn 0.0000 -1.0000 0.0000
vn -0.6399 0.0000 0.7685
vn -0.7685 0.0000 -0.6399
vn 0.6399 -0.0000 -0.7685
vn 0.7685 0.0000 0.6399
vn 1.0000 -0.0000 0.0000
vn -0.0000 0.0000 -1.0000
vn -1.0000 0.0000 0.0000
vn 0.0000 -0.0000 1.0000
s off
f 2/1/1 3/2/1 1/3/1
f 4/4/2 7/5/2 3/6/2
f 8/7/3 5/8/3 7/9/3
f 6/10/4 1/11/4 5/12/4
f 7/13/5 1/3/5 3/2/5
f 4/4/6 6/10/6 8/7/6
f 11/14/7 10/15/7 9/16/7
f 15/17/8 12/18/8 11/19/8
f 13/20/9 16/21/9 15/22/9
f 9/23/10 14/24/10 13/25/10
f 9/23/11 15/26/11 11/19/11
f 14/27/12 12/18/12 16/28/12
f 18/29/9 19/30/9 17/31/9
f 20/32/10 23/33/10 19/34/10
f 23/35/7 22/36/7 21/37/7
f 22/36/8 17/38/8 21/39/8
f 19/34/12 21/40/12 17/41/12
f 20/32/11 22/36/11 24/42/11
f 26/43/13 27/44/13 25/45/13
f 28/46/14 31/47/14 27/48/14
f 31/49/15 30/50/15 29/51/15
f 29/52/16 26/43/16 25/53/16
f 31/54/12 25/45/12 27/44/12
f 28/46/11 30/50/11 32/55/11
f 34/56/11 36/57/11 33/58/11
f 37/59/12 39/60/12 38/61/12
f 33/58/17 38/62/17 34/63/17
f 38/64/18 35/65/18 34/66/18
f 39/67/19 36/57/19 35/68/19
f 37/59/20 36/69/20 40/70/20
f 2/1/1 4/4/1 3/2/1
f 4/4/2 8/7/2 7/5/2
f 8/7/3 6/10/3 5/8/3
f 6/10/4 2/1/4 1/11/4
f 7/13/5 5/71/5 1/3/5
f 4/4/6 2/1/6 6/10/6
f 11/14/7 12/72/7 10/15/7
f 15/17/8 16/73/8 12/18/8
f 13/20/9 14/74/9 16/21/9
f 9/23/10 10/75/10 14/24/10
f 9/23/11 13/76/11 15/26/11
f 14/27/12 10/75/12 12/18/12
f 18/29/9 20/32/9 19/30/9
f 20/32/10 24/42/10 23/33/10
f 23/35/7 24/42/7 22/36/7
f 22/36/8 18/29/8 17/38/8
f 19/34/12 23/33/12 21/40/12
f 20/32/11 18/29/11 22/36/11
f 26/43/13 28/46/13 27/44/13
f 28/46/14 32/55/14 31/47/14
f 31/49/15 32/55/15 30/50/15
f 29/52/16 30/50/16 26/43/16
f 31/54/12 29/77/12 25/45/12
f 28/46/11 26/43/11 30/50/11
f 34/56/11 35/78/11 36/57/11
f 37/59/12 40/79/12 39/60/12
f 33/58/17 37/80/17 38/62/17
f 38/64/18 39/60/18 35/65/18
f 39/67/19 40/81/19 36/57/19
f 37/59/20 33/82/20 36/69/20
